# xmcd
#
# Track frame offsets:
# 150
# 6294
# 23932
# 38681
# 51488
# 61176
# 69315
# 79225
# 90968
# 99706
# 109615
# 117715
# 130088
# 136075
# 144817
# 150684
# 167945
# 177960
# 187065
# 197462
# 206911
# 215665
# 223206
# 229689
# 239515
# 248278
# 260751
#
# Disc length: 3535 seconds
#
#
# Revision: 4
# Processed by: cddbd v1.5.2PL0 Copyright (c) Steve Scherf et al.
# Submitted via: FreeRIP 2.931 
#
DISCID=860dcd1b
DTITLE=Grupo Tradição - Grupo Tradição Ao Vivo
DYEAR=2000
DGENRE=Sertanejo
TTITLE0=Abertura
TTITLE1=Brasileira
TTITLE2=Maria Fumaça
TTITLE3=Do Jeito que a Gente Gosta
TTITLE4=Nimigo do Peito
TTITLE5=60 Dias Apaixonados
TTITLE6=Faz Isso Não Paixão
TTITLE7=Não Chora China Véia
TTITLE8=Bica Que Bica
TTITLE9=Capricha Gaiteiro
TTITLE10=Telefone Mudo
TTITLE11=Som de Cristal
TTITLE12=Bailezito
TTITLE13=Nosso Balanço
TTITLE14=Eu Só Quero Um Xodó
TTITLE15=Cereja e Maçã
TTITLE16=Saudade
TTITLE17=Tô Voltando Pra Ficar
TTITLE18=Baile das Negra Touro
TTITLE19=Soy El Chamamé
TTITLE20=Fruta Proibida
TTITLE21=Bateu Saudade
TTITLE22=Cê Agarro
TTITLE23=Casamento da Doralice
TTITLE24=Baile de Louco
TTITLE25=Morenaça
TTITLE26=Encerramento
EXTD=
EXTT0=
EXTT1=
EXTT2=
EXTT3=
EXTT4=
EXTT5=
EXTT6=
EXTT7=
EXTT8=
EXTT9=
EXTT10=
EXTT11=
EXTT12=
EXTT13=
EXTT14=
EXTT15=
EXTT16=
EXTT17=
EXTT18=
EXTT19=
EXTT20=
EXTT21=
EXTT22=
EXTT23=
EXTT24=
EXTT25=
EXTT26=
PLAYORDER=
